<svg id="Layer_1" data-name="Layer 1" xmlns="http://www.w3.org/2000/svg" viewBox="0 0 512 512"><title>calculator-flat</title><rect width="512" height="512" fill="#80cbc4"/><path d="M406.49,180.76h-301V406.49a37.73,37.73,0,0,0,37.62,37.62H368.87a37.73,37.73,0,0,0,37.62-37.62Z" fill="#616161"/><path d="M368.87,67.89H143.13a37.73,37.73,0,0,0-37.62,37.62v84.65h301V105.51A37.73,37.73,0,0,0,368.87,67.89Z" fill="#404040"/><path d="M368.87,161.95H143.13c-5.64,0-9.41-3.76-9.41-9.41v-47c0-5.64,3.76-9.41,9.41-9.41H368.87c5.64,0,9.41,3.76,9.41,9.41v47C378.27,158.18,374.51,161.95,368.87,161.95Z" fill="#c0ca33"/><rect x="340.65" y="124.32" width="18.81" height="18.81" fill="#ffd54f"/><rect x="303.03" y="124.32" width="18.81" height="18.81" fill="#ffd54f"/><path d="M368.87,246.59H340.65c-5.64,0-9.41-3.76-9.41-9.41V218.38c0-5.64,3.76-9.41,9.41-9.41h28.22c5.64,0,9.41,3.76,9.41,9.41v18.81C378.27,242.83,374.51,246.59,368.87,246.59Z" fill="#ff5151"/><path d="M171.35,246.59H143.13c-5.64,0-9.41-3.76-9.41-9.41V218.38c0-5.64,3.76-9.41,9.41-9.41h28.22c5.64,0,9.41,3.76,9.41,9.41v18.81C180.76,242.83,177,246.59,171.35,246.59Z" fill="#e0e0e0"/><path d="M237.19,246.59H209c-5.64,0-9.41-3.76-9.41-9.41V218.38c0-5.64,3.76-9.41,9.41-9.41h28.22c5.64,0,9.41,3.76,9.41,9.41v18.81C246.59,242.83,242.83,246.59,237.19,246.59Z" fill="#e0e0e0"/><path d="M303,246.59H274.81c-5.64,0-9.41-3.76-9.41-9.41V218.38c0-5.64,3.76-9.41,9.41-9.41H303c5.64,0,9.41,3.76,9.41,9.41v18.81C312.43,242.83,308.67,246.59,303,246.59Z" fill="#e0e0e0"/><path d="M171.35,303H143.13c-5.64,0-9.41-3.76-9.41-9.41V274.81c0-5.64,3.76-9.41,9.41-9.41h28.22c5.64,0,9.41,3.76,9.41,9.41v18.81C180.76,299.27,177,303,171.35,303Z" fill="#e0e0e0"/><path d="M237.19,303H209c-5.64,0-9.41-3.76-9.41-9.41V274.81c0-5.64,3.76-9.41,9.41-9.41h28.22c5.64,0,9.41,3.76,9.41,9.41v18.81C246.59,299.27,242.83,303,237.19,303Z" fill="#e0e0e0"/><path d="M303,303H274.81c-5.64,0-9.41-3.76-9.41-9.41V274.81c0-5.64,3.76-9.41,9.41-9.41H303c5.64,0,9.41,3.76,9.41,9.41v18.81C312.43,299.27,308.67,303,303,303Z" fill="#e0e0e0"/><path d="M171.35,359.46H143.13c-5.64,0-9.41-3.76-9.41-9.41V331.24c0-5.64,3.76-9.41,9.41-9.41h28.22c5.64,0,9.41,3.76,9.41,9.41v18.81C180.76,355.7,177,359.46,171.35,359.46Z" fill="#e0e0e0"/><path d="M237.19,359.46H209c-5.64,0-9.41-3.76-9.41-9.41V331.24c0-5.64,3.76-9.41,9.41-9.41h28.22c5.64,0,9.41,3.76,9.41,9.41v18.81C246.59,355.7,242.83,359.46,237.19,359.46Z" fill="#e0e0e0"/><path d="M303,359.46H274.81c-5.64,0-9.41-3.76-9.41-9.41V331.24c0-5.64,3.76-9.41,9.41-9.41H303c5.64,0,9.41,3.76,9.41,9.41v18.81C312.43,355.7,308.67,359.46,303,359.46Z" fill="#e0e0e0"/><path d="M171.35,415.89H143.13c-5.64,0-9.41-3.76-9.41-9.41V387.68c0-5.64,3.76-9.41,9.41-9.41h28.22c5.64,0,9.41,3.76,9.41,9.41v18.81C180.76,412.13,177,415.89,171.35,415.89Z" fill="#e0e0e0"/><path d="M237.19,415.89H209c-5.64,0-9.41-3.76-9.41-9.41V387.68c0-5.64,3.76-9.41,9.41-9.41h28.22c5.64,0,9.41,3.76,9.41,9.41v18.81C246.59,412.13,242.83,415.89,237.19,415.89Z" fill="#e0e0e0"/><path d="M303,415.89H274.81c-5.64,0-9.41-3.76-9.41-9.41V387.68c0-5.64,3.76-9.41,9.41-9.41H303c5.64,0,9.41,3.76,9.41,9.41v18.81C312.43,412.13,308.67,415.89,303,415.89Z" fill="#e0e0e0"/><path d="M368.87,303H340.65c-5.64,0-9.41-3.76-9.41-9.41V274.81c0-5.64,3.76-9.41,9.41-9.41h28.22c5.64,0,9.41,3.76,9.41,9.41v18.81C378.27,299.27,374.51,303,368.87,303Z" fill="#bdbdbd"/><path d="M368.87,359.46H340.65c-5.64,0-9.41-3.76-9.41-9.41V331.24c0-5.64,3.76-9.41,9.41-9.41h28.22c5.64,0,9.41,3.76,9.41,9.41v18.81C378.27,355.7,374.51,359.46,368.87,359.46Z" fill="#bdbdbd"/><path d="M368.87,415.89H340.65c-5.64,0-9.41-3.76-9.41-9.41V387.68c0-5.64,3.76-9.41,9.41-9.41h28.22c5.64,0,9.41,3.76,9.41,9.41v18.81C378.27,412.13,374.51,415.89,368.87,415.89Z" fill="#bdbdbd"/></svg>